<?xml version="1.0" standalone="no"?><!DOCTYPE svg PUBLIC "-//W3C//DTD SVG 1.1//EN" "http://www.w3.org/Graphics/SVG/1.1/DTD/svg11.dtd"><svg t="1583218883600" class="icon" viewBox="0 0 1024 1024" version="1.1" xmlns="http://www.w3.org/2000/svg" p-id="4572" xmlns:xlink="http://www.w3.org/1999/xlink" width="200" height="200"><defs><style type="text/css"></style></defs><path d="M204.8 842.6496a108.8 108.8 0 0 1-108.8-108.8V290.1504c0-60.1088 48.6912-108.8 108.8-108.8h614.4c60.1088 0 108.8 48.6912 108.8 108.8v443.6992A108.8 108.8 0 0 1 819.2 842.6496H204.8z m0-64h614.4a44.8 44.8 0 0 0 44.8-44.8V290.1504A44.8 44.8 0 0 0 819.2 245.3504H204.8a44.8 44.8 0 0 0-44.8 44.8v443.6992c0 24.7808 20.0704 44.8 44.8 44.8z" fill="#5A5A68" p-id="4573"></path><path d="M139.5712 387.1744a32 32 0 1 1 28.0576-57.5488l335.9744 163.9936c5.2736 2.56 11.52 2.56 16.7936 0l335.9744-163.9936a32 32 0 1 1 28.0576 57.5488l-335.9232 163.9424c-23.04 11.264-49.9712 11.264-73.0112 0L139.5712 387.1744z" fill="#5A5A68" p-id="4574"></path></svg>